<svg xmlns="http://www.w3.org/2000/svg" fill="none" viewBox="0 0 170 31"><path fill="#2D2D2D" d="M11.392 3.646H9.59c-3.308 0-5.045 1.85-5.045 4.583 0 3.108 1.202 4.553 3.675 6.403l2.036 1.52-5.878 9.735H0l5.278-8.7C2.24 14.784.535 12.451.535 8.49.535 3.528 3.643.16 9.553.16h5.888v25.727h-4.05V3.646zM32.03 7.275v18.617h-3.973V18.12h-5.31v7.772h-3.974V7.275h3.974v7.362h5.31V7.275h3.974zm16.166 0H36.6v1.587c0 4.551-.268 10.439-1.671 13.55h-1.236v7.748h3.675v-4.268h8.916v4.268h3.692v-7.745h-1.768l-.012-15.14zm-3.977 15.14h-5.608c1.102-2.815 1.394-7.891 1.394-11.107v-.558h4.207l.007 11.665zm20.407-6.589c0-6.47-2.573-8.923-6.547-8.923-4.842 0-7.147 4.108-7.147 9.737 0 6.47 2.872 9.625 7.95 9.625 2.537 0 4.407-.742 5.577-1.631v-3.591c-1.57 1.1-3.384 1.702-5.241 1.739-2.904 0-4.008-1.516-4.176-4.627h9.587l-.003-2.329zm-4.042-.93H55.04c.102-2.966 1.07-4.516 2.972-4.516 1.973 0 2.573 1.817 2.573 4.15v.366zM71.27 16.75v9.142h-3.973V7.275h3.974v8.586l5.61-8.586h4.009l-5.611 8.586 6.38 10.031h-4.51l-5.878-9.141zm10.156-.15c0-5.662 2.636-9.706 7.714-9.706 1.97 0 3.44.372 4.276.887v3.74a7.301 7.301 0 00-3.843-1.149c-2.605 0-4.04 2.076-4.04 6.112 0 3.85 1.17 6.29 4.006 6.29 1.67 0 2.875-.478 3.877-1.257v3.59c-.973.777-2.274 1.15-4.11 1.15-5.31.008-7.88-3.435-7.88-9.657zm29.403-4.027h-.72v3.065h-1.245V8.263h1.245v3.24h.74l2.387-3.24h1.337l-2.736 3.683 2.849 3.692h-1.502l-2.355-3.065zm6.921 3.168c-.377 0-.727-.062-1.049-.185a2.453 2.453 0 01-.844-.535 2.65 2.65 0 01-.555-.874 3.3 3.3 0 01-.196-1.183c0-.446.065-.84.196-1.183a2.54 2.54 0 01.555-.864c.24-.24.521-.418.844-.535a2.908 2.908 0 011.049-.185c.377 0 .727.062 1.049.185.322.117.603.295.843.535.24.233.429.521.566.864.137.343.206.737.206 1.183 0 .446-.069.84-.206 1.183a2.566 2.566 0 01-.566.874c-.24.233-.521.412-.843.535a2.909 2.909 0 01-1.049.185zm0-.998c.411 0 .751-.144 1.018-.432.274-.288.411-.737.411-1.347 0-.603-.137-1.05-.411-1.337a1.314 1.314 0 00-1.018-.442c-.405 0-.744.147-1.019.442-.267.288-.401.734-.401 1.337 0 .61.134 1.06.401 1.347.275.288.614.432 1.019.432zm8.877-2.972l-1.574 3.353h-.874l-1.481-3.384v3.898h-1.08V10.3h1.635l1.461 3.312 1.543-3.312h1.563v5.338h-1.193v-3.867zm5.815 2.931c-.055.124-.13.247-.226.37a1.589 1.589 0 01-.339.34 1.7 1.7 0 01-.474.237 2.05 2.05 0 01-.648.092c-.233 0-.449-.034-.648-.103a1.455 1.455 0 01-.524-.288 1.485 1.485 0 01-.35-.483 1.768 1.768 0 01-.123-.679c0-.583.216-1.018.648-1.306.432-.295 1.042-.443 1.831-.443h.812v-.329c0-.35-.089-.59-.267-.72-.179-.137-.473-.205-.885-.205-.35 0-.679.051-.987.154a4.318 4.318 0 00-.803.34v-.998a4.34 4.34 0 01.844-.33c.35-.102.73-.154 1.142-.154.685 0 1.213.144 1.584.432.377.281.565.734.565 1.358v3.003c.007.076.011.155.011.237l.02.236c.007.069.014.127.021.175h-1.101a5.117 5.117 0 01-.062-.4 15.02 15.02 0 01-.03-.464l-.011-.072zm-1.357.113c.253 0 .462-.051.627-.154.171-.11.309-.233.411-.37.103-.144.175-.285.216-.422.042-.137.062-.233.062-.288v-.36h-.74c-.474 0-.82.076-1.039.226a.694.694 0 00-.329.618c0 .233.065.418.195.555.137.13.336.195.597.195zm7.448-1.43h-2.253v2.253h-1.193V10.3h1.193v2.119h2.253V10.3h1.193v5.338h-1.193v-2.252zm2.592 1.286c.158-.137.282-.325.371-.565.096-.24.171-.539.226-.895.055-.364.096-.785.123-1.265.028-.48.052-1.029.072-1.646h3.909v4.371h.802v2.49h-1.039l-.092-1.523h-3.682l-.093 1.523h-1.049v-2.49h.452zm3.508 0v-3.404h-1.687a20.398 20.398 0 01-.175 2.098c-.075.549-.202.984-.38 1.306h2.242zm6.125.031c-.055.124-.13.247-.226.37a1.571 1.571 0 01-.813.577 2.05 2.05 0 01-.648.092c-.233 0-.449-.034-.648-.103a1.447 1.447 0 01-.524-.288 1.485 1.485 0 01-.35-.483 1.768 1.768 0 01-.123-.679c0-.583.216-1.018.648-1.306.432-.295 1.042-.443 1.83-.443h.813v-.329c0-.35-.089-.59-.267-.72-.179-.137-.474-.205-.885-.205-.35 0-.679.051-.987.154a4.29 4.29 0 00-.803.34v-.998a4.34 4.34 0 01.844-.33c.349-.102.73-.154 1.141-.154.686 0 1.214.144 1.584.432.378.281.566.734.566 1.358v3.003c.007.076.01.155.01.237l.021.236c.007.069.014.127.021.175h-1.101a4.679 4.679 0 01-.062-.4 19.393 19.393 0 01-.031-.464l-.01-.072zm-1.358.113c.254 0 .463-.051.628-.154a1.56 1.56 0 00.411-.37c.103-.144.175-.285.216-.422.041-.137.062-.233.062-.288v-.36h-.741c-.473 0-.819.076-1.038.226a.695.695 0 00-.33.618c0 .233.066.418.196.555.137.13.336.195.596.195zm-40.803 9.856a1.35 1.35 0 00.37-.565c.096-.24.172-.539.226-.895.055-.364.096-.785.124-1.265.027-.48.051-1.029.072-1.646h3.908v4.371h.803v2.49h-1.039l-.093-1.523h-3.682l-.093 1.523h-1.049v-2.49h.453zm3.507 0v-3.404h-1.687a20.435 20.435 0 01-.174 2.098c-.076.549-.203.984-.381 1.306h2.242zm3.583-.925c.076-.35.124-.803.144-1.358.028-.562.041-1.258.041-2.088h3.837v5.338h-1.193v-4.371h-1.553c-.014.706-.041 1.33-.083 1.872-.041.542-.126 1.001-.257 1.378-.123.37-.305.655-.545.854-.233.199-.548.298-.946.298-.055 0-.11-.003-.165-.01-.048 0-.099-.004-.154-.01v-1.111a.93.93 0 00.154.02.55.55 0 00.443-.195c.116-.137.209-.343.277-.617zm5.517-1.697c0-.288.055-.542.165-.762.11-.219.261-.4.453-.545.198-.15.435-.26.709-.329.281-.075.59-.113.926-.113h1.985v5.338h-1.193v-1.81h-.761l-1.265 1.81h-1.337l1.47-2.067c-.37-.11-.654-.288-.853-.535-.199-.247-.299-.576-.299-.987zm3.045.833v-1.636h-.699c-.33 0-.6.062-.813.185-.206.124-.309.33-.309.618 0 .294.093.507.278.637.192.13.463.196.813.196h.73zm10.212.103c0 .445-.068.84-.205 1.182a2.47 2.47 0 01-.566.864 2.327 2.327 0 01-.844.535 3.06 3.06 0 01-1.049.175c-.384 0-.737-.065-1.059-.195-.322-.13-.6-.326-.833-.587a2.99 2.99 0 01-.556-.987c-.13-.398-.195-.864-.195-1.399 0-.487.02-.932.062-1.337.041-.405.109-.768.205-1.09.103-.323.24-.604.412-.844a2.41 2.41 0 01.658-.637 2.615 2.615 0 011.008-.381c.363-.055.734-.09 1.111-.103.418-.02.734-.055.946-.103a2.38 2.38 0 00.545-.205v1.059a1.53 1.53 0 01-.236.123 2.238 2.238 0 01-.288.072c-.11.021-.237.042-.381.062-.144.014-.312.028-.504.041-.35.035-.668.069-.956.103a1.719 1.719 0 00-.772.257c-.26.179-.452.425-.576.74-.123.316-.206.7-.247 1.153.343-.775 1.005-1.162 1.985-1.162a2.2 2.2 0 01.895.185c.288.116.539.288.751.514.213.226.381.504.504.833a3.2 3.2 0 01.185 1.132zm-2.664 1.758c.419 0 .761-.14 1.029-.421.274-.288.411-.727.411-1.317s-.137-1.025-.411-1.306c-.268-.288-.61-.432-1.029-.432-.411 0-.751.14-1.018.422-.261.28-.391.713-.391 1.296 0 .603.134 1.049.401 1.337.268.28.604.421 1.008.421zm5.07-.72l2.469-3.723h1.173v5.338h-1.183v-3.703l-2.448 3.703h-1.193V20.3h1.182v3.723zm9.12.083c0 .288-.062.535-.185.74a1.474 1.474 0 01-.494.515 2.26 2.26 0 01-.73.288 4.17 4.17 0 01-.895.092c-.453 0-.823-.044-1.111-.134a3.398 3.398 0 01-.669-.288v-.977c.199.13.446.237.741.32.302.075.627.112.977.112.364 0 .652-.055.864-.164.213-.11.319-.295.319-.556 0-.247-.096-.421-.288-.524-.192-.11-.49-.165-.895-.165h-.751v-.905h.772c.322 0 .569-.055.74-.165a.54.54 0 00.268-.493c0-.24-.1-.405-.299-.494-.192-.096-.442-.144-.75-.144-.336 0-.638.041-.906.123a2.669 2.669 0 00-.709.309v-.977c.171-.11.404-.206.699-.288.295-.09.658-.134 1.09-.134.659 0 1.159.12 1.502.36.343.24.514.59.514 1.05 0 .349-.096.623-.288.822-.192.192-.473.333-.843.422.885.137 1.327.555 1.327 1.255zm4.815-.72h-2.253v2.252h-1.193V20.3h1.193v2.119h2.253V20.3h1.193v5.338h-1.193v-2.252zm7.2 1.861a6.147 6.147 0 01-.277.165c-.11.055-.24.106-.391.154a3.976 3.976 0 01-1.204.175c-.98 0-1.714-.243-2.201-.73-.48-.487-.72-1.17-.72-2.047 0-.432.065-.82.196-1.162.13-.343.312-.631.545-.864a2.28 2.28 0 01.833-.545c.322-.13.675-.196 1.059-.196.398 0 .755.065 1.07.196.322.13.586.325.792.586.206.26.346.583.422.967.082.384.085.833.01 1.347h-3.693c.048.487.21.854.484 1.1.274.24.703.36 1.286.36.425 0 .778-.05 1.059-.154.288-.11.531-.222.73-.339v.987zm-2.16-4.104c-.349 0-.644.107-.884.32-.24.212-.398.527-.473.946h2.509c.014-.432-.082-.751-.288-.957-.205-.206-.493-.309-.864-.309zm6.066 4.598c-.432 0-.82-.062-1.163-.185a2.53 2.53 0 01-.874-.545 2.443 2.443 0 01-.555-.874 3.269 3.269 0 01-.196-1.173c0-.432.065-.82.196-1.162a2.322 2.322 0 011.44-1.41c.349-.13.74-.195 1.172-.195.371 0 .693.041.967.124.281.082.504.185.669.308v.988a2.71 2.71 0 00-.7-.32 2.968 2.968 0 00-.864-.112c-1.104 0-1.656.593-1.656 1.779s.542 1.78 1.625 1.78c.35 0 .648-.038.895-.114.254-.082.487-.185.7-.308v.987c-.179.117-.401.22-.669.309a3.392 3.392 0 01-.987.123zm6.036-1.039a1.803 1.803 0 01-.227.37 1.589 1.589 0 01-.339.34c-.13.096-.288.175-.473.237a2.05 2.05 0 01-.648.092c-.233 0-.449-.034-.648-.103a1.451 1.451 0 01-.525-.288 1.483 1.483 0 01-.349-.483 1.75 1.75 0 01-.124-.679c0-.583.216-1.018.648-1.306.432-.295 1.042-.443 1.831-.443h.813v-.329c0-.35-.09-.59-.268-.72-.178-.137-.473-.205-.884-.205-.35 0-.679.051-.988.154a4.279 4.279 0 00-.802.34v-.998c.212-.117.494-.227.843-.33a4.04 4.04 0 011.142-.154c.686 0 1.214.144 1.584.432.377.281.566.734.566 1.358v3.003c.007.076.01.155.01.237l.021.236c.006.069.013.127.02.175h-1.1a4.31 4.31 0 01-.062-.4 15.264 15.264 0 01-.031-.464l-.01-.072zm-1.358.113c.254 0 .463-.051.627-.154a1.55 1.55 0 00.412-.37c.103-.144.175-.285.216-.422.041-.137.062-.233.062-.288v-.36h-.741c-.473 0-.819.076-1.039.226a.696.696 0 00-.329.618c0 .233.065.418.195.555.138.13.336.195.597.195z"/></svg>