<svg xmlns="http://www.w3.org/2000/svg" fill="none" viewBox="0 0 36 36"><path fill="#D489B2" d="M21.465 12.105c7.125 0 11.175 12.105 9.075 15.735-2.1 3.645-16.08 3.615-18.165 0-2.085-3.63 1.965-15.735 9.09-15.735z" opacity=".7"/><path fill="#21201F" d="M32.294 29.265H3.704L4.2 28.2a158.783 158.783 0 013.84-7.665l1.32.705c-1.14 2.13-2.25 4.32-3.3 6.525h11.19v-3.21c0-.795-.135-3.525-1.95-5.22-.975-.915-2.31-1.38-3.945-1.395.03.915.3 2.025 1.02 2.85.72.795 1.77 1.2 3.165 1.2v1.5c-1.83 0-3.27-.57-4.275-1.71-1.245-1.395-1.515-3.315-1.365-4.665l.075-.63.63-.045c2.385-.15 4.305.45 5.73 1.785.705.66 1.2 1.44 1.56 2.22.165-.465.36-.93.585-1.395-.39-2.16.3-4.335 1.86-5.895a6.67 6.67 0 016.18-1.755l.465.105.105.465a6.615 6.615 0 01-1.815 6.165 6.59 6.59 0 01-5.595 1.875 9.965 9.965 0 00-.93 4.2v3.555h11.175c-1.29-2.7-2.7-5.445-4.23-8.175L27 18.855a144.89 144.89 0 014.77 9.345l.525 1.065zm-12.39-10.74a5.176 5.176 0 004.305-1.47 5.157 5.157 0 001.485-4.29 5.166 5.166 0 00-4.305 1.455 5.203 5.203 0 00-1.485 4.305zm-7.065-3.39l-1.29-.765a148.07 148.07 0 015.835-8.985L18 4.5l.615.87a129.334 129.334 0 013.165 4.725l-1.26.81C19.694 9.615 18.84 8.34 18 7.11a154.47 154.47 0 00-5.16 8.025z"/></svg>