<svg xmlns="http://www.w3.org/2000/svg" fill="none" viewBox="0 0 36 36"><path fill="#D489B2" d="M21.565 24.998c-7.122 0-11.178-12.1-9.081-15.732 2.103-3.642 16.077-3.614 18.164 0 2.095 3.629-1.955 15.733-9.083 15.732z" opacity=".7"/><path fill="#21201F" d="M18.022 29.164h-.037c-.427 0-.87-.123-1.425-.397-5.067-2.513-7.924-5.994-8.736-10.637l1.476-.258c.723 4.14 3.316 7.263 7.923 9.55.342.168.64.284.778.242h.007c.211 0 .442-.072.784-.242 8.593-4.265 8.291-10.543 8.091-14.696a61.312 61.312 0 01-.042-1.004 26.12 26.12 0 01-8.832-4.396 26.211 26.211 0 01-2.645 1.77L14.607 7.8a24.848 24.848 0 002.934-2.012l.468-.375.467.375a24.677 24.677 0 009.292 4.628l.563.145v.582c0 .45.025.957.051 1.508.205 4.27.548 11.414-8.925 16.115-.553.274-.997.397-1.435.397zM11.354 17.25h-.759l-.157-.542c-.229-.792-.763-2.222-1.219-2.678-.436-.445-1.825-.98-2.673-1.219L6 12.659V11.33l.543-.154c.856-.246 2.25-.785 2.67-1.214.45-.441.985-1.83 1.225-2.678l.153-.547h1.327l.157.54c.23.793.764 2.221 1.22 2.679.458.467 1.882.994 2.673 1.217l.546.155v1.326l-.542.157c-.793.228-2.221.763-2.677 1.22-.455.457-.99 1.885-1.22 2.678l-.157.542h-.564zm-2.66-5.258c.601.266 1.216.6 1.59.983.376.375.708.992.973 1.596.266-.605.6-1.225.977-1.601.377-.377.99-.71 1.593-.975-.604-.265-1.222-.602-1.599-.985-.372-.375-.704-.989-.969-1.59-.265.604-.6 1.223-.984 1.6-.369.376-.98.708-1.582.972z"/></svg>