<svg xmlns="http://www.w3.org/2000/svg" fill="none" viewBox="0 0 82 82"><circle cx="41" cy="41" r="41" fill="#D489B2"/><path fill="#fff" fill-rule="evenodd" d="M54.712 20.16c-1.218 0-2.151.945-2.151 2.053 0 1.475.627 2.48 1.583 3.343.708.64 1.514 1.139 2.375 1.673.224.14.453.28.684.428.245-.154.495-.305.74-.454.218-.133.433-.264.635-.39.624-.389 1.193-.774 1.681-1.207.94-.834 1.576-1.836 1.582-3.394-.001-1.108-.934-2.052-2.151-2.052-.72 0-1.339.328-1.733.832l-.756.967-.757-.967a2.179 2.179 0 00-1.732-.832zm-4.071 2.053c0-2.228 1.854-3.973 4.07-3.973.938 0 1.8.306 2.49.826a4.117 4.117 0 012.489-.826c2.217 0 4.07 1.745 4.07 3.973v.003c-.007 2.222-.971 3.713-2.227 4.827-.61.541-1.289.994-1.939 1.4-.245.152-.48.295-.707.433-.4.243-.78.473-1.154.723l-.532.355-.533-.355c-.302-.201-.64-.412-.998-.634-.924-.574-1.97-1.224-2.813-1.984-1.243-1.122-2.216-2.611-2.216-4.768zm-22.077 6.755c1.971-3.233 5.68-5.929 12.385-5.929 5.448 0 8.883 2.366 10.9 5.376 1.75 2.608 2.405 5.648 2.49 7.94 1.077.199 2.375.66 3.511 1.524 1.517 1.152 2.711 2.998 2.711 5.734 0 2.739-1.199 4.537-2.742 5.615-1.14.797-2.438 1.182-3.514 1.319-.257 2.869-1.74 4.77-3.555 5.942-1.6 1.033-3.438 1.492-4.895 1.622-.184 1.058-.688 1.917-1.402 2.537-.893.775-2.05 1.126-3.167 1.111-1.117-.014-2.263-.393-3.14-1.168-.897-.793-1.463-1.956-1.449-3.41.03-2.98 2.393-4.584 4.624-4.648 1.122-.033 2.285.311 3.175 1.11.696.623 1.177 1.482 1.357 2.538 1.18-.127 2.626-.512 3.855-1.306 1.508-.973 2.715-2.57 2.715-5.228v-6.724a.957.957 0 01-.449.14c-.192.01-.383.015-.569.016-.103 3.806-.812 6.444-1.743 8.216-.994 1.894-2.302 2.89-3.44 3.072l-.305-1.896c.324-.052 1.21-.48 2.045-2.069.758-1.443 1.426-3.777 1.523-7.385-9.803-.738-14.505-9.124-15.68-13.487l1.855-.5c1.112 4.131 5.61 11.89 14.81 12.114h1.45c.185 0 .357.051.503.141v-4.111c.057-2.053-.462-5.144-2.169-7.69-1.67-2.49-4.512-4.524-9.305-4.524-6.094 0-9.152 2.395-10.745 5.009-1.643 2.693-1.826 5.775-1.826 7.232v9.736c0 1.009-.406 1.98-1.104 2.625-.722.669-1.764.98-2.855.57-1.035-.39-2.092-1.059-2.888-2.141-.801-1.09-1.29-2.531-1.29-4.378 0-3.45 1.201-5.414 2.886-6.433 1.142-.69 2.404-.874 3.353-.922.088-1.792.484-4.667 2.084-7.29zm-2.107 9.217c-.76.048-1.601.194-2.337.64-.967.584-1.959 1.826-1.959 4.788 0 1.493.39 2.523.917 3.24.532.722 1.254 1.193 2.017 1.48.335.126.624.051.875-.181.276-.255.487-.7.487-1.215v-8.752zm27.887 10.414c.758-.131 1.625-.421 2.375-.946 1.048-.732 1.921-1.952 1.921-4.04 0-2.093-.878-3.39-1.952-4.205-.743-.564-1.595-.907-2.344-1.09V48.6zm-22.642-3.457c-.121 2.618.52 4.5 1.685 5.731a9.092 9.092 0 002.174 1.705l-.926 1.683a11.008 11.008 0 01-2.643-2.068c-1.63-1.722-2.346-4.178-2.21-7.14.137-2.955 1.122-6.491 2.981-10.518l1.744.805c-1.798 3.894-2.684 7.179-2.805 9.802zm9.675 9.31c-1.426.042-2.742 1.01-2.759 2.748-.009.907.329 1.535.8 1.951.49.433 1.175.679 1.892.688.717.009 1.397-.219 1.883-.641.467-.406.819-1.043.819-2.007v-.009c.009-1.041-.346-1.704-.798-2.11-.47-.42-1.13-.64-1.837-.62z" clip-rule="evenodd"/></svg>